<svg xmlns="http://www.w3.org/2000/svg" width="1200" height="720" viewBox="0 0 1200 720" role="img"><title>Terminal PTY throughput distributions</title>
<desc>Grouped box plots comparing eight vtebench workloads for Monstar, foot, Ghostty, kitty, and Alacritty.</desc>
<style>
    .title { fill: #f0f6fc; font: 700 28px -apple-system, BlinkMacSystemFont, 'Segoe UI', sans-serif; }
    .subtitle { fill: #a8b3bf; font: 15px -apple-system, BlinkMacSystemFont, 'Segoe UI', sans-serif; }
    .label { fill: #f0f6fc; font: 15px -apple-system, BlinkMacSystemFont, 'Segoe UI', sans-serif; }
    .small { fill: #a8b3bf; font: 13px -apple-system, BlinkMacSystemFont, 'Segoe UI', sans-serif; }
    .axis { fill: #a8b3bf; font: 12px -apple-system, BlinkMacSystemFont, 'Segoe UI', sans-serif; }
    .grid { stroke: #3d444d; stroke-width: 1; }
    .whisker { stroke: #a8b3bf; stroke-width: 1.4; }
    .median { stroke: #f0f6fc; stroke-width: 2.2; }
    .line { stroke: #3d444d; stroke-width: 1; }
    </style>
<rect width="1200" height="720" rx="18" fill="#0d1117"/>
<rect x="1" y="1" width="1198" height="718" rx="17" fill="none" stroke="#3d444d"/>
<rect x="28" y="84" width="1144" height="600" rx="12" fill="#161b22"/>
<text x="42" y="48" class="title" text-anchor="start">PTY throughput distributions</text>
<text x="42" y="72" class="subtitle" text-anchor="start">vtebench samples · logarithmic scale · lower is better</text>
<rect x="245" y="98" width="13" height="13" rx="3" fill="#d783ed"/>
<text x="265" y="109" class="small" text-anchor="start">Monstar</text>
<rect x="420" y="98" width="13" height="13" rx="3" fill="#56b4e9"/>
<text x="440" y="109" class="small" text-anchor="start">foot</text>
<rect x="595" y="98" width="13" height="13" rx="3" fill="#e69f00"/>
<text x="615" y="109" class="small" text-anchor="start">Ghostty</text>
<rect x="770" y="98" width="13" height="13" rx="3" fill="#34c38f"/>
<text x="790" y="109" class="small" text-anchor="start">kitty</text>
<rect x="945" y="98" width="13" height="13" rx="3" fill="#e06c75"/>
<text x="965" y="109" class="small" text-anchor="start">Alacritty</text>
<line x1="112" y1="585" x2="1160" y2="585" class="grid"/>
<text x="100" y="589" class="axis" text-anchor="end">1</text>
<line x1="112" y1="542.35" x2="1160" y2="542.35" class="grid"/>
<text x="100" y="546.35" class="axis" text-anchor="end">2</text>
<line x1="112" y1="485.98" x2="1160" y2="485.98" class="grid"/>
<text x="100" y="489.98" class="axis" text-anchor="end">5</text>
<line x1="112" y1="443.33" x2="1160" y2="443.33" class="grid"/>
<text x="100" y="447.33" class="axis" text-anchor="end">10</text>
<line x1="112" y1="400.69" x2="1160" y2="400.69" class="grid"/>
<text x="100" y="404.69" class="axis" text-anchor="end">20</text>
<line x1="112" y1="344.31" x2="1160" y2="344.31" class="grid"/>
<text x="100" y="348.31" class="axis" text-anchor="end">50</text>
<line x1="112" y1="301.67" x2="1160" y2="301.67" class="grid"/>
<text x="100" y="305.67" class="axis" text-anchor="end">100</text>
<line x1="112" y1="259.02" x2="1160" y2="259.02" class="grid"/>
<text x="100" y="263.02" class="axis" text-anchor="end">200</text>
<line x1="112" y1="202.65" x2="1160" y2="202.65" class="grid"/>
<text x="100" y="206.65" class="axis" text-anchor="end">500</text>
<line x1="112" y1="160" x2="1160" y2="160" class="grid"/>
<text x="100" y="164" class="axis" text-anchor="end">1000</text>
<text x="0" y="0" class="small" text-anchor="middle" transform="translate(43 365) rotate(-90)">sample time (ms)</text>
<line x1="141.5" y1="542.35" x2="141.5" y2="485.98" class="whisker"/>
<line x1="137.5" y1="542.35" x2="145.5" y2="542.35" class="whisker"/>
<line x1="137.5" y1="485.98" x2="145.5" y2="485.98" class="whisker"/>
<rect x="134.5" y="499.71" width="14" height="17.7" rx="2" fill="#d783ed" fill-opacity="0.34" stroke="#d783ed" stroke-width="1.7"/>
<line x1="134.5" y1="499.71" x2="148.5" y2="499.71" class="median"/>
<path d="M138.7 474.8h0M140.1 474.8h0M141.5 474.8h0M142.9 474.8h0M144.3 465.3h0M138.7 457.1h0M140.1 432.1h0M141.5 387.0h0" fill="none" stroke="#d783ed" stroke-width="3.6" stroke-linecap="round" stroke-opacity="0.85"/>
<line x1="159.5" y1="517.41" x2="159.5" y2="485.98" class="whisker"/>
<line x1="155.5" y1="517.41" x2="163.5" y2="517.41" class="whisker"/>
<line x1="155.5" y1="485.98" x2="163.5" y2="485.98" class="whisker"/>
<rect x="152.5" y="499.71" width="14" height="17.7" rx="2" fill="#56b4e9" fill-opacity="0.34" stroke="#56b4e9" stroke-width="1.7"/>
<line x1="152.5" y1="499.71" x2="166.5" y2="499.71" class="median"/>
<path d="M156.7 474.8h0M158.1 474.8h0M159.5 474.8h0M160.9 474.8h0M162.3 465.3h0M156.7 465.3h0M158.1 449.8h0M159.5 414.4h0" fill="none" stroke="#56b4e9" stroke-width="3.6" stroke-linecap="round" stroke-opacity="0.85"/>
<line x1="177.5" y1="499.71" x2="177.5" y2="465.28" class="whisker"/>
<line x1="173.5" y1="499.71" x2="181.5" y2="499.71" class="whisker"/>
<line x1="173.5" y1="465.28" x2="181.5" y2="465.28" class="whisker"/>
<rect x="170.5" y="474.76" width="14" height="11.22" rx="2" fill="#e69f00" fill-opacity="0.34" stroke="#e69f00" stroke-width="1.7"/>
<line x1="170.5" y1="485.98" x2="184.5" y2="485.98" class="median"/>
<path d="M174.7 517.4h0M176.1 457.1h0M177.5 457.1h0M178.9 457.1h0M180.3 449.8h0M174.7 443.3h0M176.1 432.1h0M177.5 332.1h0" fill="none" stroke="#e69f00" stroke-width="3.6" stroke-linecap="round" stroke-opacity="0.85"/>
<line x1="195.5" y1="394.82" x2="195.5" y2="373.72" class="whisker"/>
<line x1="191.5" y1="394.82" x2="199.5" y2="394.82" class="whisker"/>
<line x1="191.5" y1="373.72" x2="199.5" y2="373.72" class="whisker"/>
<rect x="188.5" y="379.99" width="14" height="6.97" rx="2" fill="#34c38f" fill-opacity="0.34" stroke="#34c38f" stroke-width="1.7"/>
<line x1="188.5" y1="382.22" x2="202.5" y2="382.22" class="median"/>
<path d="M192.7 368.0h0M194.1 364.5h0M195.5 352.2h0M196.9 345.6h0M198.3 345.6h0M192.7 343.1h0M194.1 341.9h0M195.5 339.6h0" fill="none" stroke="#34c38f" stroke-width="3.6" stroke-linecap="round" stroke-opacity="0.85"/>
<line x1="213.5" y1="485.98" x2="213.5" y2="457.06" class="whisker"/>
<line x1="209.5" y1="485.98" x2="217.5" y2="485.98" class="whisker"/>
<line x1="209.5" y1="457.06" x2="217.5" y2="457.06" class="whisker"/>
<rect x="206.5" y="465.28" width="14" height="9.48" rx="2" fill="#e06c75" fill-opacity="0.34" stroke="#e06c75" stroke-width="1.7"/>
<line x1="206.5" y1="474.76" x2="220.5" y2="474.76" class="median"/>
<path d="M210.7 499.7h0M212.1 499.7h0M213.5 499.7h0M214.9 499.7h0M216.3 449.8h0M210.7 437.5h0M212.1 414.4h0M213.5 407.2h0" fill="none" stroke="#e06c75" stroke-width="3.6" stroke-linecap="round" stroke-opacity="0.85"/>
<text x="177.5" y="616" class="axis" text-anchor="middle">Cursor</text>
<text x="177.5" y="634" class="axis" text-anchor="middle">motion</text>
<line x1="272.5" y1="585" x2="272.5" y2="499.71" class="whisker"/>
<line x1="268.5" y1="585" x2="276.5" y2="585" class="whisker"/>
<line x1="268.5" y1="499.71" x2="276.5" y2="499.71" class="whisker"/>
<rect x="265.5" y="517.41" width="14" height="24.95" rx="2" fill="#d783ed" fill-opacity="0.34" stroke="#d783ed" stroke-width="1.7"/>
<line x1="265.5" y1="517.41" x2="279.5" y2="517.41" class="median"/>
<path d="M269.7 486.0h0M271.1 486.0h0M272.5 486.0h0M273.9 486.0h0M275.3 486.0h0M269.7 474.8h0M271.1 465.3h0M272.5 427.2h0" fill="none" stroke="#d783ed" stroke-width="3.6" stroke-linecap="round" stroke-opacity="0.85"/>
<line x1="290.5" y1="499.71" x2="290.5" y2="443.33" class="whisker"/>
<line x1="286.5" y1="499.71" x2="294.5" y2="499.71" class="whisker"/>
<line x1="286.5" y1="443.33" x2="294.5" y2="443.33" class="whisker"/>
<rect x="283.5" y="465.28" width="14" height="20.7" rx="2" fill="#56b4e9" fill-opacity="0.34" stroke="#56b4e9" stroke-width="1.7"/>
<line x1="283.5" y1="474.76" x2="297.5" y2="474.76" class="median"/>
<path d="M287.7 437.5h0M289.1 437.5h0M290.5 432.1h0M291.9 422.6h0M293.3 410.7h0M287.7 400.7h0M289.1 387.0h0M290.5 355.0h0" fill="none" stroke="#56b4e9" stroke-width="3.6" stroke-linecap="round" stroke-opacity="0.85"/>
<line x1="308.5" y1="542.35" x2="308.5" y2="432.12" class="whisker"/>
<line x1="304.5" y1="542.35" x2="312.5" y2="542.35" class="whisker"/>
<line x1="304.5" y1="432.12" x2="312.5" y2="432.12" class="whisker"/>
<rect x="301.5" y="457.06" width="14" height="28.92" rx="2" fill="#e69f00" fill-opacity="0.34" stroke="#e69f00" stroke-width="1.7"/>
<line x1="301.5" y1="474.76" x2="315.5" y2="474.76" class="median"/>
<path d="M305.7 427.2h0M307.1 422.6h0M308.5 422.6h0M309.9 414.4h0M311.3 410.7h0M305.7 400.7h0M307.1 382.2h0M308.5 353.6h0" fill="none" stroke="#e69f00" stroke-width="3.6" stroke-linecap="round" stroke-opacity="0.85"/>
<line x1="326.5" y1="474.76" x2="326.5" y2="449.82" class="whisker"/>
<line x1="322.5" y1="474.76" x2="330.5" y2="474.76" class="whisker"/>
<line x1="322.5" y1="449.82" x2="330.5" y2="449.82" class="whisker"/>
<rect x="319.5" y="457.06" width="14" height="8.22" rx="2" fill="#34c38f" fill-opacity="0.34" stroke="#34c38f" stroke-width="1.7"/>
<line x1="319.5" y1="465.28" x2="333.5" y2="465.28" class="median"/>
<path d="M323.7 499.7h0M325.1 486.0h0M326.5 443.3h0M327.9 437.5h0M329.3 437.5h0M323.7 437.5h0M325.1 432.1h0M326.5 400.7h0" fill="none" stroke="#34c38f" stroke-width="3.6" stroke-linecap="round" stroke-opacity="0.85"/>
<line x1="344.5" y1="474.76" x2="344.5" y2="457.06" class="whisker"/>
<line x1="340.5" y1="474.76" x2="348.5" y2="474.76" class="whisker"/>
<line x1="340.5" y1="457.06" x2="348.5" y2="457.06" class="whisker"/>
<rect x="337.5" y="465.28" width="14" height="9.48" rx="2" fill="#e06c75" fill-opacity="0.34" stroke="#e06c75" stroke-width="1.7"/>
<line x1="337.5" y1="465.28" x2="351.5" y2="465.28" class="median"/>
<path d="M341.7 449.8h0M343.1 449.8h0M344.5 449.8h0M345.9 449.8h0M347.3 449.8h0M341.7 437.5h0M343.1 422.6h0M344.5 410.7h0" fill="none" stroke="#e06c75" stroke-width="3.6" stroke-linecap="round" stroke-opacity="0.85"/>
<text x="308.5" y="616" class="axis" text-anchor="middle">Light</text>
<text x="308.5" y="634" class="axis" text-anchor="middle">cells</text>
<line x1="403.5" y1="465.28" x2="403.5" y2="465.28" class="whisker"/>
<line x1="399.5" y1="465.28" x2="407.5" y2="465.28" class="whisker"/>
<line x1="399.5" y1="465.28" x2="407.5" y2="465.28" class="whisker"/>
<rect x="396.5" y="465.28" width="14" height="2" rx="2" fill="#d783ed" fill-opacity="0.34" stroke="#d783ed" stroke-width="1.7"/>
<line x1="396.5" y1="465.28" x2="410.5" y2="465.28" class="median"/>
<path d="M400.7 474.8h0M402.1 474.8h0M403.5 474.8h0M404.9 474.8h0M406.3 474.8h0M400.7 457.1h0M402.1 457.1h0M403.5 364.5h0" fill="none" stroke="#d783ed" stroke-width="3.6" stroke-linecap="round" stroke-opacity="0.85"/>
<line x1="421.5" y1="485.98" x2="421.5" y2="386.96" class="whisker"/>
<line x1="417.5" y1="485.98" x2="425.5" y2="485.98" class="whisker"/>
<line x1="417.5" y1="386.96" x2="425.5" y2="386.96" class="whisker"/>
<rect x="414.5" y="418.39" width="14" height="38.68" rx="2" fill="#56b4e9" fill-opacity="0.34" stroke="#56b4e9" stroke-width="1.7"/>
<line x1="414.5" y1="449.82" x2="428.5" y2="449.82" class="median"/>
<path d="M418.7 377.8h0M420.1 371.8h0M421.5 362.8h0M422.9 359.6h0M424.3 350.8h0M418.7 349.4h0" fill="none" stroke="#56b4e9" stroke-width="3.6" stroke-linecap="round" stroke-opacity="0.85"/>
<line x1="439.5" y1="465.28" x2="439.5" y2="407.17" class="whisker"/>
<line x1="435.5" y1="465.28" x2="443.5" y2="465.28" class="whisker"/>
<line x1="435.5" y1="407.17" x2="443.5" y2="407.17" class="whisker"/>
<rect x="432.5" y="432.12" width="14" height="24.95" rx="2" fill="#e69f00" fill-opacity="0.34" stroke="#e69f00" stroke-width="1.7"/>
<line x1="432.5" y1="443.33" x2="446.5" y2="443.33" class="median"/>
<path d="M436.7 403.8h0M438.1 403.8h0M439.5 400.7h0M440.9 394.8h0M442.3 389.5h0M436.7 387.0h0M438.1 380.0h0M439.5 321.0h0" fill="none" stroke="#e69f00" stroke-width="3.6" stroke-linecap="round" stroke-opacity="0.85"/>
<line x1="457.5" y1="397.69" x2="457.5" y2="389.47" class="whisker"/>
<line x1="453.5" y1="397.69" x2="461.5" y2="397.69" class="whisker"/>
<line x1="453.5" y1="389.47" x2="461.5" y2="389.47" class="whisker"/>
<rect x="450.5" y="392.09" width="14" height="2.73" rx="2" fill="#34c38f" fill-opacity="0.34" stroke="#34c38f" stroke-width="1.7"/>
<line x1="450.5" y1="392.09" x2="464.5" y2="392.09" class="median"/>
<path d="M454.7 403.8h0M456.1 387.0h0M457.5 387.0h0M458.9 371.8h0M460.3 369.9h0M454.7 366.3h0M456.1 355.0h0M457.5 353.6h0" fill="none" stroke="#34c38f" stroke-width="3.6" stroke-linecap="round" stroke-opacity="0.85"/>
<line x1="475.5" y1="465.28" x2="475.5" y2="443.33" class="whisker"/>
<line x1="471.5" y1="465.28" x2="479.5" y2="465.28" class="whisker"/>
<line x1="471.5" y1="443.33" x2="479.5" y2="443.33" class="whisker"/>
<rect x="468.5" y="449.82" width="14" height="7.25" rx="2" fill="#e06c75" fill-opacity="0.34" stroke="#e06c75" stroke-width="1.7"/>
<line x1="468.5" y1="449.82" x2="482.5" y2="449.82" class="median"/>
<path d="M472.7 437.5h0M474.1 437.5h0M475.5 437.5h0M476.9 437.5h0M478.3 432.1h0M472.7 422.6h0M474.1 407.2h0M475.5 400.7h0" fill="none" stroke="#e06c75" stroke-width="3.6" stroke-linecap="round" stroke-opacity="0.85"/>
<text x="439.5" y="616" class="axis" text-anchor="middle">Medium</text>
<text x="439.5" y="634" class="axis" text-anchor="middle">cells</text>
<line x1="534.5" y1="392.09" x2="534.5" y2="384.55" class="whisker"/>
<line x1="530.5" y1="392.09" x2="538.5" y2="392.09" class="whisker"/>
<line x1="530.5" y1="384.55" x2="538.5" y2="384.55" class="whisker"/>
<rect x="527.5" y="386.96" width="14" height="2.51" rx="2" fill="#d783ed" fill-opacity="0.34" stroke="#d783ed" stroke-width="1.7"/>
<line x1="527.5" y1="389.47" x2="541.5" y2="389.47" class="median"/>
<path d="M531.7 397.7h0M533.1 382.2h0M534.5 382.2h0M535.9 382.2h0M537.3 380.0h0M531.7 377.8h0M533.1 371.8h0M534.5 362.8h0" fill="none" stroke="#d783ed" stroke-width="3.6" stroke-linecap="round" stroke-opacity="0.85"/>
<line x1="552.5" y1="427.19" x2="552.5" y2="389.47" class="whisker"/>
<line x1="548.5" y1="427.19" x2="556.5" y2="427.19" class="whisker"/>
<line x1="548.5" y1="389.47" x2="556.5" y2="389.47" class="whisker"/>
<rect x="545.5" y="400.69" width="14" height="10" rx="2" fill="#56b4e9" fill-opacity="0.34" stroke="#56b4e9" stroke-width="1.7"/>
<line x1="545.5" y1="403.84" x2="559.5" y2="403.84" class="median"/>
<path d="M549.7 437.5h0M551.1 432.1h0M552.5 432.1h0M553.9 387.0h0M555.3 384.5h0M549.7 382.2h0M551.1 377.8h0M552.5 364.5h0" fill="none" stroke="#56b4e9" stroke-width="3.6" stroke-linecap="round" stroke-opacity="0.85"/>
<line x1="570.5" y1="386.96" x2="570.5" y2="339.58" class="whisker"/>
<line x1="566.5" y1="386.96" x2="574.5" y2="386.96" class="whisker"/>
<line x1="566.5" y1="339.58" x2="574.5" y2="339.58" class="whisker"/>
<rect x="563.5" y="355.04" width="14" height="13" rx="2" fill="#e69f00" fill-opacity="0.34" stroke="#e69f00" stroke-width="1.7"/>
<line x1="563.5" y1="362.84" x2="577.5" y2="362.84" class="median"/>
<path d="M567.7 337.3h0M569.1 335.2h0M570.5 333.1h0M571.9 327.2h0M573.3 324.5h0M567.7 310.9h0M569.1 294.7h0M570.5 278.8h0" fill="none" stroke="#e69f00" stroke-width="3.6" stroke-linecap="round" stroke-opacity="0.85"/>
<line x1="588.5" y1="359.6" x2="588.5" y2="334.13" class="whisker"/>
<line x1="584.5" y1="359.6" x2="592.5" y2="359.6" class="whisker"/>
<line x1="584.5" y1="334.13" x2="592.5" y2="334.13" class="whisker"/>
<rect x="581.5" y="346.5" width="14" height="10.02" rx="2" fill="#34c38f" fill-opacity="0.34" stroke="#34c38f" stroke-width="1.7"/>
<line x1="581.5" y1="355.04" x2="595.5" y2="355.04" class="median"/>
<path d="M585.7 329.1h0M587.1 329.1h0" fill="none" stroke="#34c38f" stroke-width="3.6" stroke-linecap="round" stroke-opacity="0.85"/>
<line x1="606.5" y1="410.69" x2="606.5" y2="386.96" class="whisker"/>
<line x1="602.5" y1="410.69" x2="610.5" y2="410.69" class="whisker"/>
<line x1="602.5" y1="386.96" x2="610.5" y2="386.96" class="whisker"/>
<rect x="599.5" y="394.82" width="14" height="5.86" rx="2" fill="#e06c75" fill-opacity="0.34" stroke="#e06c75" stroke-width="1.7"/>
<line x1="599.5" y1="397.69" x2="613.5" y2="397.69" class="median"/>
<path d="M603.7 414.4h0M605.1 384.5h0M606.5 380.0h0M607.9 380.0h0M609.3 375.7h0M603.7 373.7h0M605.1 371.8h0M606.5 368.0h0" fill="none" stroke="#e06c75" stroke-width="3.6" stroke-linecap="round" stroke-opacity="0.85"/>
<text x="570.5" y="616" class="axis" text-anchor="middle">Dense</text>
<text x="570.5" y="634" class="axis" text-anchor="middle">cells</text>
<line x1="665.5" y1="268.66" x2="665.5" y2="238.1" class="whisker"/>
<line x1="661.5" y1="268.66" x2="669.5" y2="268.66" class="whisker"/>
<line x1="661.5" y1="238.1" x2="669.5" y2="238.1" class="whisker"/>
<rect x="658.5" y="245.29" width="14" height="13.42" rx="2" fill="#d783ed" fill-opacity="0.34" stroke="#d783ed" stroke-width="1.7"/>
<line x1="658.5" y1="249.1" x2="672.5" y2="249.1" class="median"/>
<line x1="683.5" y1="255.44" x2="683.5" y2="234.9" class="whisker"/>
<line x1="679.5" y1="255.44" x2="687.5" y2="255.44" class="whisker"/>
<line x1="679.5" y1="234.9" x2="687.5" y2="234.9" class="whisker"/>
<rect x="676.5" y="241.07" width="14" height="8.03" rx="2" fill="#56b4e9" fill-opacity="0.34" stroke="#56b4e9" stroke-width="1.7"/>
<line x1="676.5" y1="245.29" x2="690.5" y2="245.29" class="median"/>
<path d="M680.7 229.7h0" fill="none" stroke="#56b4e9" stroke-width="3.6" stroke-linecap="round" stroke-opacity="0.85"/>
<line x1="701.5" y1="257.8" x2="701.5" y2="229.91" class="whisker"/>
<line x1="697.5" y1="257.8" x2="705.5" y2="257.8" class="whisker"/>
<line x1="697.5" y1="229.91" x2="705.5" y2="229.91" class="whisker"/>
<rect x="694.5" y="239.65" width="14" height="8.67" rx="2" fill="#e69f00" fill-opacity="0.34" stroke="#e69f00" stroke-width="1.7"/>
<line x1="694.5" y1="243.35" x2="708.5" y2="243.35" class="median"/>
<line x1="719.5" y1="253.16" x2="719.5" y2="235.11" class="whisker"/>
<line x1="715.5" y1="253.16" x2="723.5" y2="253.16" class="whisker"/>
<line x1="715.5" y1="235.11" x2="723.5" y2="235.11" class="whisker"/>
<rect x="712.5" y="241.3" width="14" height="8.26" rx="2" fill="#34c38f" fill-opacity="0.34" stroke="#34c38f" stroke-width="1.7"/>
<line x1="712.5" y1="245.79" x2="726.5" y2="245.79" class="median"/>
<path d="M716.7 226.7h0M718.1 224.2h0" fill="none" stroke="#34c38f" stroke-width="3.6" stroke-linecap="round" stroke-opacity="0.85"/>
<line x1="737.5" y1="265.5" x2="737.5" y2="237.66" class="whisker"/>
<line x1="733.5" y1="265.5" x2="741.5" y2="265.5" class="whisker"/>
<line x1="733.5" y1="237.66" x2="741.5" y2="237.66" class="whisker"/>
<rect x="730.5" y="248.38" width="14" height="9.65" rx="2" fill="#e06c75" fill-opacity="0.34" stroke="#e06c75" stroke-width="1.7"/>
<line x1="730.5" y1="252.32" x2="744.5" y2="252.32" class="median"/>
<text x="701.5" y="616" class="axis" text-anchor="middle">Scrolling</text>
<line x1="796.5" y1="465.28" x2="796.5" y2="384.55" class="whisker"/>
<line x1="792.5" y1="465.28" x2="800.5" y2="465.28" class="whisker"/>
<line x1="792.5" y1="384.55" x2="800.5" y2="384.55" class="whisker"/>
<rect x="789.5" y="403.84" width="14" height="23.35" rx="2" fill="#d783ed" fill-opacity="0.34" stroke="#d783ed" stroke-width="1.7"/>
<line x1="789.5" y1="414.42" x2="803.5" y2="414.42" class="median"/>
<path d="M793.7 377.8h0M795.1 375.7h0M796.5 371.8h0" fill="none" stroke="#d783ed" stroke-width="3.6" stroke-linecap="round" stroke-opacity="0.85"/>
<line x1="814.5" y1="485.98" x2="814.5" y2="457.06" class="whisker"/>
<line x1="810.5" y1="485.98" x2="818.5" y2="485.98" class="whisker"/>
<line x1="810.5" y1="457.06" x2="818.5" y2="457.06" class="whisker"/>
<rect x="807.5" y="465.28" width="14" height="9.48" rx="2" fill="#56b4e9" fill-opacity="0.34" stroke="#56b4e9" stroke-width="1.7"/>
<line x1="807.5" y1="474.76" x2="821.5" y2="474.76" class="median"/>
<path d="M811.7 449.8h0M813.1 449.8h0M814.5 443.3h0M815.9 437.5h0M817.3 414.4h0M811.7 410.7h0M813.1 410.7h0M814.5 375.7h0" fill="none" stroke="#56b4e9" stroke-width="3.6" stroke-linecap="round" stroke-opacity="0.85"/>
<line x1="832.5" y1="474.76" x2="832.5" y2="397.69" class="whisker"/>
<line x1="828.5" y1="474.76" x2="836.5" y2="474.76" class="whisker"/>
<line x1="828.5" y1="397.69" x2="836.5" y2="397.69" class="whisker"/>
<rect x="825.5" y="422.63" width="14" height="27.18" rx="2" fill="#e69f00" fill-opacity="0.34" stroke="#e69f00" stroke-width="1.7"/>
<line x1="825.5" y1="437.47" x2="839.5" y2="437.47" class="median"/>
<path d="M829.7 377.8h0M831.1 359.6h0M832.5 323.6h0M833.9 309.5h0" fill="none" stroke="#e69f00" stroke-width="3.6" stroke-linecap="round" stroke-opacity="0.85"/>
<line x1="850.5" y1="499.71" x2="850.5" y2="443.33" class="whisker"/>
<line x1="846.5" y1="499.71" x2="854.5" y2="499.71" class="whisker"/>
<line x1="846.5" y1="443.33" x2="854.5" y2="443.33" class="whisker"/>
<rect x="843.5" y="465.28" width="14" height="20.7" rx="2" fill="#34c38f" fill-opacity="0.34" stroke="#34c38f" stroke-width="1.7"/>
<line x1="843.5" y1="474.76" x2="857.5" y2="474.76" class="median"/>
<path d="M847.7 437.5h0M849.1 437.5h0M850.5 437.5h0M851.9 432.1h0M853.3 432.1h0M847.7 403.8h0" fill="none" stroke="#34c38f" stroke-width="3.6" stroke-linecap="round" stroke-opacity="0.85"/>
<line x1="868.5" y1="465.28" x2="868.5" y2="443.33" class="whisker"/>
<line x1="864.5" y1="465.28" x2="872.5" y2="465.28" class="whisker"/>
<line x1="864.5" y1="443.33" x2="872.5" y2="443.33" class="whisker"/>
<rect x="861.5" y="449.82" width="14" height="7.25" rx="2" fill="#e06c75" fill-opacity="0.34" stroke="#e06c75" stroke-width="1.7"/>
<line x1="861.5" y1="457.06" x2="875.5" y2="457.06" class="median"/>
<path d="M865.7 437.5h0M867.1 437.5h0M868.5 432.1h0M869.9 432.1h0M871.3 432.1h0M865.7 427.2h0M867.1 427.2h0M868.5 418.4h0" fill="none" stroke="#e06c75" stroke-width="3.6" stroke-linecap="round" stroke-opacity="0.85"/>
<text x="832.5" y="616" class="axis" text-anchor="middle">Fullscreen</text>
<text x="832.5" y="634" class="axis" text-anchor="middle">scroll</text>
<line x1="927.5" y1="465.28" x2="927.5" y2="465.28" class="whisker"/>
<line x1="923.5" y1="465.28" x2="931.5" y2="465.28" class="whisker"/>
<line x1="923.5" y1="465.28" x2="931.5" y2="465.28" class="whisker"/>
<rect x="920.5" y="465.28" width="14" height="2" rx="2" fill="#d783ed" fill-opacity="0.34" stroke="#d783ed" stroke-width="1.7"/>
<line x1="920.5" y1="465.28" x2="934.5" y2="465.28" class="median"/>
<path d="M924.7 474.8h0M926.1 474.8h0M927.5 457.1h0M928.9 457.1h0M930.3 457.1h0M924.7 457.1h0M926.1 449.8h0M927.5 403.8h0" fill="none" stroke="#d783ed" stroke-width="3.6" stroke-linecap="round" stroke-opacity="0.85"/>
<line x1="945.5" y1="465.28" x2="945.5" y2="427.19" class="whisker"/>
<line x1="941.5" y1="465.28" x2="949.5" y2="465.28" class="whisker"/>
<line x1="941.5" y1="427.19" x2="949.5" y2="427.19" class="whisker"/>
<rect x="938.5" y="443.33" width="14" height="13.73" rx="2" fill="#56b4e9" fill-opacity="0.34" stroke="#56b4e9" stroke-width="1.7"/>
<line x1="938.5" y1="449.82" x2="952.5" y2="449.82" class="median"/>
<path d="M942.7 422.6h0M944.1 422.6h0M945.5 418.4h0M946.9 414.4h0M948.3 407.2h0M942.7 403.8h0M944.1 397.7h0M945.5 356.5h0" fill="none" stroke="#56b4e9" stroke-width="3.6" stroke-linecap="round" stroke-opacity="0.85"/>
<line x1="963.5" y1="465.28" x2="963.5" y2="427.19" class="whisker"/>
<line x1="959.5" y1="465.28" x2="967.5" y2="465.28" class="whisker"/>
<line x1="959.5" y1="427.19" x2="967.5" y2="427.19" class="whisker"/>
<rect x="956.5" y="443.33" width="14" height="13.73" rx="2" fill="#e69f00" fill-opacity="0.34" stroke="#e69f00" stroke-width="1.7"/>
<line x1="956.5" y1="449.82" x2="970.5" y2="449.82" class="median"/>
<path d="M960.7 422.6h0M962.1 422.6h0M963.5 422.6h0M964.9 418.4h0M966.3 410.7h0M960.7 403.8h0M962.1 397.7h0M963.5 346.8h0" fill="none" stroke="#e69f00" stroke-width="3.6" stroke-linecap="round" stroke-opacity="0.85"/>
<line x1="981.5" y1="377.83" x2="981.5" y2="364.52" class="whisker"/>
<line x1="977.5" y1="377.83" x2="985.5" y2="377.83" class="whisker"/>
<line x1="977.5" y1="364.52" x2="985.5" y2="364.52" class="whisker"/>
<rect x="974.5" y="368.04" width="14" height="3.73" rx="2" fill="#34c38f" fill-opacity="0.34" stroke="#34c38f" stroke-width="1.7"/>
<line x1="974.5" y1="369.88" x2="988.5" y2="369.88" class="median"/>
<path d="M978.7 359.6h0M980.1 356.5h0M981.5 334.1h0M982.9 333.1h0M984.3 331.1h0M978.7 330.1h0M980.1 330.1h0M981.5 329.1h0" fill="none" stroke="#34c38f" stroke-width="3.6" stroke-linecap="round" stroke-opacity="0.85"/>
<line x1="999.5" y1="457.06" x2="999.5" y2="410.69" class="whisker"/>
<line x1="995.5" y1="457.06" x2="1003.5" y2="457.06" class="whisker"/>
<line x1="995.5" y1="410.69" x2="1003.5" y2="410.69" class="whisker"/>
<rect x="992.5" y="427.19" width="14" height="16.14" rx="2" fill="#e06c75" fill-opacity="0.34" stroke="#e06c75" stroke-width="1.7"/>
<line x1="992.5" y1="437.47" x2="1006.5" y2="437.47" class="median"/>
<path d="M996.7 407.2h0M998.1 407.2h0M999.5 403.8h0M1000.9 400.7h0M1002.3 397.7h0M996.7 397.7h0M998.1 387.0h0M999.5 371.8h0" fill="none" stroke="#e06c75" stroke-width="3.6" stroke-linecap="round" stroke-opacity="0.85"/>
<text x="963.5" y="616" class="axis" text-anchor="middle">Sync</text>
<text x="963.5" y="634" class="axis" text-anchor="middle">medium</text>
<line x1="1058.5" y1="443.33" x2="1058.5" y2="443.33" class="whisker"/>
<line x1="1054.5" y1="443.33" x2="1062.5" y2="443.33" class="whisker"/>
<line x1="1054.5" y1="443.33" x2="1062.5" y2="443.33" class="whisker"/>
<rect x="1051.5" y="443.33" width="14" height="2" rx="2" fill="#d783ed" fill-opacity="0.34" stroke="#d783ed" stroke-width="1.7"/>
<line x1="1051.5" y1="443.33" x2="1065.5" y2="443.33" class="median"/>
<path d="M1055.7 457.1h0M1057.1 449.8h0M1058.5 449.8h0M1059.9 449.8h0M1061.3 437.5h0M1055.7 437.5h0M1057.1 437.5h0M1058.5 397.7h0" fill="none" stroke="#d783ed" stroke-width="3.6" stroke-linecap="round" stroke-opacity="0.85"/>
<line x1="1076.5" y1="449.82" x2="1076.5" y2="432.12" class="whisker"/>
<line x1="1072.5" y1="449.82" x2="1080.5" y2="449.82" class="whisker"/>
<line x1="1072.5" y1="432.12" x2="1080.5" y2="432.12" class="whisker"/>
<rect x="1069.5" y="437.47" width="14" height="5.86" rx="2" fill="#56b4e9" fill-opacity="0.34" stroke="#56b4e9" stroke-width="1.7"/>
<line x1="1069.5" y1="443.33" x2="1083.5" y2="443.33" class="median"/>
<path d="M1073.7 427.2h0M1075.1 427.2h0M1076.5 427.2h0M1077.9 422.6h0M1079.3 414.4h0M1073.7 392.1h0M1075.1 375.7h0M1076.5 242.2h0" fill="none" stroke="#56b4e9" stroke-width="3.6" stroke-linecap="round" stroke-opacity="0.85"/>
<line x1="1094.5" y1="449.82" x2="1094.5" y2="418.39" class="whisker"/>
<line x1="1090.5" y1="449.82" x2="1098.5" y2="449.82" class="whisker"/>
<line x1="1090.5" y1="418.39" x2="1098.5" y2="418.39" class="whisker"/>
<rect x="1087.5" y="432.12" width="14" height="11.22" rx="2" fill="#e69f00" fill-opacity="0.34" stroke="#e69f00" stroke-width="1.7"/>
<line x1="1087.5" y1="437.47" x2="1101.5" y2="437.47" class="median"/>
<path d="M1091.7 414.4h0M1093.1 410.7h0M1094.5 407.2h0M1095.9 403.8h0M1097.3 397.7h0M1091.7 392.1h0M1093.1 384.5h0M1094.5 340.7h0" fill="none" stroke="#e69f00" stroke-width="3.6" stroke-linecap="round" stroke-opacity="0.85"/>
<line x1="1112.5" y1="485.98" x2="1112.5" y2="407.17" class="whisker"/>
<line x1="1108.5" y1="485.98" x2="1116.5" y2="485.98" class="whisker"/>
<line x1="1108.5" y1="407.17" x2="1116.5" y2="407.17" class="whisker"/>
<rect x="1105.5" y="432.12" width="14" height="33.16" rx="2" fill="#34c38f" fill-opacity="0.34" stroke="#34c38f" stroke-width="1.7"/>
<line x1="1105.5" y1="457.06" x2="1119.5" y2="457.06" class="median"/>
<path d="M1109.7 306.8h0M1111.1 297.5h0M1112.5 276.7h0M1113.9 249.1h0M1115.3 207.0h0M1109.7 183.5h0M1111.1 182.9h0M1112.5 172.2h0" fill="none" stroke="#34c38f" stroke-width="3.6" stroke-linecap="round" stroke-opacity="0.85"/>
<line x1="1130.5" y1="449.82" x2="1130.5" y2="414.42" class="whisker"/>
<line x1="1126.5" y1="449.82" x2="1134.5" y2="449.82" class="whisker"/>
<line x1="1126.5" y1="414.42" x2="1134.5" y2="414.42" class="whisker"/>
<rect x="1123.5" y="427.19" width="14" height="10.28" rx="2" fill="#e06c75" fill-opacity="0.34" stroke="#e06c75" stroke-width="1.7"/>
<line x1="1123.5" y1="432.12" x2="1137.5" y2="432.12" class="median"/>
<path d="M1127.7 410.7h0M1129.1 410.7h0M1130.5 407.2h0M1131.9 400.7h0M1133.3 397.7h0M1127.7 392.1h0M1129.1 377.8h0M1130.5 361.2h0" fill="none" stroke="#e06c75" stroke-width="3.6" stroke-linecap="round" stroke-opacity="0.85"/>
<text x="1094.5" y="616" class="axis" text-anchor="middle">Unicode</text>
<text x="42" y="666" class="small" text-anchor="start">Box: middle 50% · center line: median · whiskers: 1.5× IQR · dots: sampled outliers</text></svg>
